<svg xmlns="http://www.w3.org/2000/svg" viewBox="0 0 283.46 187.54"><defs><style>.cls-1{fill:#fff;}</style></defs><title>アセット 1</title><g id="レイヤー_2" data-name="レイヤー 2"><g id="レイヤー_1-2" data-name="レイヤー 1"><polygon class="cls-1" points="16.19 178.98 19.14 178.98 19.14 187.28 21.59 187.28 21.59 178.98 24.54 178.98 24.54 176.78 16.19 176.78 16.19 178.98"/><path class="cls-1" d="M38.21,176.78h-2l-4.48,10.37-.05.13h2.7l.86-2.18h3.89l.86,2.13,0,.05h2.76l-4.54-10.44Zm.07,6.21H36l1.12-2.86Z"/><polygon class="cls-1" points="60.37 176.94 60.51 176.78 57.29 176.78 53.41 180.93 53.41 176.78 50.96 176.78 50.96 187.28 53.41 187.28 53.41 182.54 57.45 187.25 57.48 187.28 60.9 187.28 55.83 181.67 60.37 176.94"/><rect class="cls-1" x="68.64" y="176.78" width="2.46" height="10.5"/><polygon class="cls-1" points="86.19 183.38 83.86 176.78 80.27 176.78 80.27 187.28 82.72 187.28 82.72 179.76 85.18 187.22 85.2 187.28 87.07 187.28 89.65 179.74 89.65 187.28 92.11 187.28 92.11 176.78 88.53 176.78 86.19 183.38"/><path class="cls-1" d="M110.47,178a5.17,5.17,0,0,0-1.8-1.1,6.74,6.74,0,0,0-4.52,0,5,5,0,0,0-1.79,1.1,5,5,0,0,0-1.18,1.75,5.89,5.89,0,0,0-.43,2.27,6,6,0,0,0,.43,2.28,4.92,4.92,0,0,0,1.18,1.74,5.06,5.06,0,0,0,1.79,1.11,6.91,6.91,0,0,0,4.52,0,5,5,0,0,0,3-2.85,6.37,6.37,0,0,0,0-4.55A5.25,5.25,0,0,0,110.47,178Zm-4.06,7.25a3.28,3.28,0,0,1-1.28-.24,2.88,2.88,0,0,1-1.61-1.69,3.92,3.92,0,0,1,0-2.59,2.78,2.78,0,0,1,.63-1,2.94,2.94,0,0,1,1-.67,3.53,3.53,0,0,1,2.56,0,2.84,2.84,0,0,1,1.62,1.7,3.92,3.92,0,0,1,0,2.59,3.13,3.13,0,0,1-.63,1,2.94,2.94,0,0,1-1,.67A3.28,3.28,0,0,1,106.41,185.26Z"/><polygon class="cls-1" points="119.77 178.98 122.71 178.98 122.71 187.28 125.17 187.28 125.17 178.98 128.11 178.98 128.11 176.78 119.77 176.78 119.77 178.98"/><path class="cls-1" d="M145.52,178a5.22,5.22,0,0,0-1.79-1.1,6.77,6.77,0,0,0-4.53,0,5,5,0,0,0-1.79,1.1,5.1,5.1,0,0,0-1.18,1.75,5.89,5.89,0,0,0-.42,2.27,6,6,0,0,0,.42,2.28,5,5,0,0,0,1.18,1.74,5.06,5.06,0,0,0,1.79,1.11,6.94,6.94,0,0,0,4.53,0,5.24,5.24,0,0,0,1.79-1.11,5,5,0,0,0,1.18-1.74,6.37,6.37,0,0,0,0-4.55A5,5,0,0,0,145.52,178Zm-4.06,7.25a3.28,3.28,0,0,1-1.28-.24,2.8,2.8,0,0,1-1-.67,3,3,0,0,1-.63-1,3.92,3.92,0,0,1,0-2.59,3.07,3.07,0,0,1,.63-1,2.94,2.94,0,0,1,1-.67,3.28,3.28,0,0,1,1.28-.24,3.33,3.33,0,0,1,1.29.24,2.94,2.94,0,0,1,1,.67,3.07,3.07,0,0,1,.63,1,3.92,3.92,0,0,1,0,2.59,3.13,3.13,0,0,1-.63,1,2.8,2.8,0,0,1-1,.67A3.3,3.3,0,0,1,141.46,185.26Z"/><path class="cls-1" d="M174.28,184.12l-.05.08a2.3,2.3,0,0,1-.86.78,2.41,2.41,0,0,1-1.19.28,2.57,2.57,0,0,1-1.11-.24,2.79,2.79,0,0,1-.9-.67,3.2,3.2,0,0,1-.6-1,3.92,3.92,0,0,1,0-2.59,3.39,3.39,0,0,1,.61-1,2.91,2.91,0,0,1,.92-.67,2.75,2.75,0,0,1,1.15-.24,2.65,2.65,0,0,1,1.09.21,2.13,2.13,0,0,1,.79.6l.06.07L176,178.2l.07-.06-.06-.07a3.58,3.58,0,0,0-.78-.73,3.9,3.9,0,0,0-.9-.48,5.77,5.77,0,0,0-1-.26,6,6,0,0,0-.92-.08,6.35,6.35,0,0,0-2.26.39,5.17,5.17,0,0,0-1.8,1.1,5.1,5.1,0,0,0-1.18,1.75,6.37,6.37,0,0,0,0,4.55,5.06,5.06,0,0,0,1.18,1.74,5.19,5.19,0,0,0,1.8,1.11,6.35,6.35,0,0,0,2.26.38,5.19,5.19,0,0,0,2.11-.44,3.92,3.92,0,0,0,1.69-1.39l0-.07-2-1.46Z"/><path class="cls-1" d="M193.79,178a5.22,5.22,0,0,0-1.79-1.1,6.48,6.48,0,0,0-2.27-.39,6.39,6.39,0,0,0-2.26.39,5.12,5.12,0,0,0-1.79,1.1,5,5,0,0,0-1.18,1.75,6.37,6.37,0,0,0,0,4.55,5,5,0,0,0,1.18,1.74,5.15,5.15,0,0,0,1.79,1.11,6.38,6.38,0,0,0,2.26.38,6.48,6.48,0,0,0,2.27-.38,5.24,5.24,0,0,0,1.79-1.11,5,5,0,0,0,1.18-1.74,6,6,0,0,0,.42-2.28,5.89,5.89,0,0,0-.42-2.27A5.1,5.1,0,0,0,193.79,178Zm-4.06,7.25a3.28,3.28,0,0,1-1.28-.24,2.8,2.8,0,0,1-1-.67,2.88,2.88,0,0,1-.63-1,3.92,3.92,0,0,1,0-2.59,3.07,3.07,0,0,1,.63-1,2.94,2.94,0,0,1,1-.67,3.28,3.28,0,0,1,1.28-.24A3.37,3.37,0,0,1,191,179a2.86,2.86,0,0,1,1.61,1.7,3.92,3.92,0,0,1,0,2.59,3,3,0,0,1-.63,1,2.9,2.9,0,0,1-1,.67A3.3,3.3,0,0,1,189.73,185.26Z"/><polygon class="cls-1" points="204.13 187.28 206.58 187.28 206.58 183.26 210.88 183.26 210.88 180.98 206.58 180.98 206.58 179.06 211.23 179.06 211.23 176.78 204.13 176.78 204.13 187.28"/><polygon class="cls-1" points="220.05 187.28 222.5 187.28 222.5 183.26 226.8 183.26 226.8 180.98 222.5 180.98 222.5 179.06 227.15 179.06 227.15 176.78 220.05 176.78 220.05 187.28"/><polygon class="cls-1" points="238.43 183.08 242.9 183.08 242.9 180.81 238.43 180.81 238.43 179.06 243.16 179.06 243.16 176.78 235.97 176.78 235.97 187.28 243.43 187.28 243.43 185 238.43 185 238.43 183.08"/><polygon class="cls-1" points="254.89 185 254.89 183.08 259.36 183.08 259.36 180.81 254.89 180.81 254.89 179.06 259.63 179.06 259.63 176.78 252.44 176.78 252.44 187.28 259.89 187.28 259.89 185 254.89 185"/><path class="cls-1" d="M4.86,112.29l12,4.2a.47.47,0,0,0,.17,0,.56.56,0,0,0,.44-.22.53.53,0,0,0,0-.65l-8.1-9.9a.51.51,0,0,0-.43-.2.53.53,0,0,0-.42.23l-3.9,5.71a.51.51,0,0,0-.07.46A.53.53,0,0,0,4.86,112.29Z"/><path class="cls-1" d="M15.77,129.76a.53.53,0,0,0-.45-.49L.61,127.17a.53.53,0,0,0-.51.21.55.55,0,0,0,0,.54l2.7,5.71a.53.53,0,0,0,.49.3.41.41,0,0,0,.15,0l12-3.6A.53.53,0,0,0,15.77,129.76Z"/><path class="cls-1" d="M17.54,136.51a.51.51,0,0,0-.64.2L5.79,153.52a.51.51,0,0,0,0,.49.5.5,0,0,0,.38.32l7.51,1.5h.1a.52.52,0,0,0,.52-.43l3.6-18.31A.51.51,0,0,0,17.54,136.51Z"/><path class="cls-1" d="M19.23,125.2H36.88a4.62,4.62,0,0,0,4.62-4.61.54.54,0,0,0-.53-.54H34.38l1.71-1.42a.51.51,0,0,0,.13-.65l-1.12-2.14h1.78a4.62,4.62,0,0,0,4.62-4.62.53.53,0,0,0-.53-.53H31l3-5.4a.52.52,0,0,0,0-.47.58.58,0,0,0-.36-.31l-5.17-1.28a.5.5,0,0,0-.47.1.51.51,0,0,0-.19.43l.3,6.93H19.23a.53.53,0,0,0-.53.53v4.08a.53.53,0,0,0,.53.53H21.3l1.79,4.22H19.23a.54.54,0,0,0-.53.54v4.08A.53.53,0,0,0,19.23,125.2Zm7.36-5.15.53-4.21h4.74l-1.66,4.21Z"/><path class="cls-1" d="M40.38,131.76a4.6,4.6,0,0,0-4.61-4.5H19.05s-.05,0-.06,0a.36.36,0,0,0-.12.08l0,0a0,0,0,0,0,0,0,.4.4,0,0,0-.1.18h0a.51.51,0,0,0,0,.17L19.51,155a.55.55,0,0,0,.35.48.58.58,0,0,0,.18,0,.57.57,0,0,0,.4-.18l3-3.3a.52.52,0,0,0,.13-.41l-.32-3.2H36.12l.5,7.19a.53.53,0,0,0,.52.49h0a.53.53,0,0,0,.53-.47L40.38,132s0,0,0-.08A.43.43,0,0,0,40.38,131.76ZM21.87,134.9l-.26-2.5H35l.17,2.5Zm.86,8.41-.34-3.26H35.53l.23,3.26Z"/><path class="cls-1" d="M64.73,149.79H48l-.16-4H57a4.62,4.62,0,0,0,4.61-4.62.53.53,0,0,0-.53-.53H47.65l-.13-3.17H57a4.62,4.62,0,0,0,4.61-4.61.53.53,0,0,0-.53-.54H47.32l-.16-3.84h5.48a4.61,4.61,0,0,0,4.6-4.32.05.05,0,0,0,0,0l.67-8.31a5.87,5.87,0,0,0,0-.59v0h0v0a.3.3,0,0,0,0-.1s0-.06,0-.09a.42.42,0,0,0-.09-.14s0,0,0,0h0a.57.57,0,0,0-.18-.12l-.09,0-.11,0H46.39v-2.06h8A4.62,4.62,0,0,0,59,108a.54.54,0,0,0-.53-.54H46.39v-4.36a.53.53,0,0,0-.44-.52l-3.3-.6a.57.57,0,0,0-.45.12.58.58,0,0,0-.18.43l.78,16.78a.42.42,0,0,0,0,.16s0,0,0,0a.57.57,0,0,0,.08.13l0,0a.6.6,0,0,0,.13.09h0a.54.54,0,0,0,.22.05h10l.85,3.55H44.56l-.07,0-.1,0-.09,0-.09.06-.06.08-.06.08,0,.1a.24.24,0,0,0,0,.08l-3.52,30.52a.52.52,0,0,0,.14.41.5.5,0,0,0,.39.18h19.6a4.62,4.62,0,0,0,4.61-4.61A.53.53,0,0,0,64.73,149.79Z"/><path class="cls-1" d="M134.15,144.62l-20-27.5h8.64a5,5,0,0,0,5-5,.58.58,0,0,0-.58-.58H109l-1-11.63a.57.57,0,0,0-.57-.53h0a.57.57,0,0,0-.58.53l-1,11.63H86.68a.58.58,0,0,0-.58.58v4.44a.58.58,0,0,0,.58.58H104L77.15,140.67a.58.58,0,0,0,.18,1l7.7,2.92a.52.52,0,0,0,.21,0,.56.56,0,0,0,.46-.23l19.58-25.57-1.46,17.78H94.39a.58.58,0,0,0-.58.58v4.44a.58.58,0,0,0,.58.58h9l-1,11.95a.54.54,0,0,0,.16.45.56.56,0,0,0,.42.18h0l9.18-.38a.58.58,0,0,0,.41-.2.54.54,0,0,0,.14-.44l-1-11.56h5.45a5,5,0,0,0,5-5,.58.58,0,0,0-.58-.58H111.21l-1.15-13.11,23.28,22a.54.54,0,0,0,.39.16h0a.58.58,0,0,0,.58-.58A.59.59,0,0,0,134.15,144.62Z"/><path class="cls-1" d="M170.29,144.71h-9.83l1.09-12.42h4.3a5,5,0,0,0,5-5,.58.58,0,0,0-.58-.58H162l1.09-12.42h2.72a5,5,0,0,0,5-5,.58.58,0,0,0-.58-.58H148.65a.58.58,0,0,0-.58.58v4.44a.58.58,0,0,0,.58.58h7l.55,12.42h-7.52a.58.58,0,0,0-.58.58v4.44a.58.58,0,0,0,.58.58h7.76l.54,12.42h-8.3a.58.58,0,0,0-.58.58v4.44a.58.58,0,0,0,.58.58h17.2a5,5,0,0,0,5-5A.58.58,0,0,0,170.29,144.71Z"/><path class="cls-1" d="M191.57,113.57a5,5,0,0,0-5-4.9h-2.28l1.28-5.6a.58.58,0,0,0-1.1-.35l-2.48,6H174a.58.58,0,0,0-.58.58v4.44a.58.58,0,0,0,.58.58h5.59L169,139.68a.59.59,0,0,0,.27.75l6.27,3.13a.58.58,0,0,0,.26.06.7.7,0,0,0,.25-.05.6.6,0,0,0,.31-.4l6.6-28.9h2.4l-1.67,36.89a.58.58,0,0,0,.51.6h.07a.58.58,0,0,0,.57-.48l6.69-37.48a.43.43,0,0,0,0-.11A.49.49,0,0,0,191.57,113.57Z"/><path class="cls-1" d="M207.59,147.8a.43.43,0,0,0,0-.05l5.41-34s0-.07,0-.1a.5.5,0,0,0,0-.12,5,5,0,0,0-5-4.9H194.29l-.11,0-.08,0a.61.61,0,0,0-.16.12h0a.82.82,0,0,0-.12.2.22.22,0,0,1,0,.08s0,.08,0,.12l.8,34h0a5,5,0,0,0,5,5H207a.51.51,0,0,0,.22-.05l.06,0a.51.51,0,0,0,.13-.09l0,0s0,0,0,0a.54.54,0,0,0,.07-.13Zm-3.36-33.53,1.54,28.37h-4.89l-5-28.37Z"/><path class="cls-1" d="M249.57,129.62A.57.57,0,0,0,249,129H239.4l.75-5.27h4.4a5,5,0,0,0,5-5,.57.57,0,0,0-.58-.57h-8l.75-5.28h2.85a5,5,0,0,0,5-5,.57.57,0,0,0-.58-.58H227.35a.58.58,0,0,0-.58.58v4.44a.58.58,0,0,0,.58.58h7.28l.84,5.28h-8.12a.57.57,0,0,0-.58.57v4.44a.58.58,0,0,0,.58.58h9l.84,5.27h-9.84a.58.58,0,0,0-.58.58v4.44a.58.58,0,0,0,.58.58h17.2A5,5,0,0,0,249.57,129.62Z"/><path class="cls-1" d="M278.44,128.84a5,5,0,0,0,5-5,.57.57,0,0,0-.57-.58H271.5l.4-5.6h6.54a5,5,0,0,0,5-5,.57.57,0,0,0-.57-.58H272.31l.66-9.27a.57.57,0,0,0-.14-.42.63.63,0,0,0-.4-.21l-5.8-.38a.6.6,0,0,0-.44.17.55.55,0,0,0-.17.44l2.31,49.06a.58.58,0,0,0,.57.55h0a.57.57,0,0,0,.58-.53l.81-11.4h8.14a5,5,0,0,0,5-5,.57.57,0,0,0-.57-.57H270.7l.4-5.61Z"/><path class="cls-1" d="M263.93,101.76a.59.59,0,0,0-.62.51L262.15,112h-12a.58.58,0,0,0-.58.58c0,3,6.32,5,8.89,5h3l-.67,5.6H250.15a.58.58,0,0,0-.58.58c0,3,6.32,5,8.89,5h1.7l-.67,5.61h-9.34a.58.58,0,0,0-.58.57,5,5,0,0,0,5,5h4.24l-.12,1-14.48,10.28a.59.59,0,0,0-.17.76.58.58,0,0,0,.5.29.46.46,0,0,0,.23-.05l17.78-7.72a.58.58,0,0,0,.35-.51l1.55-41.73A.58.58,0,0,0,263.93,101.76Z"/><path class="cls-1" d="M159.81,0h-8.6V5l8.23,52.2a9.22,9.22,0,0,1,2-.22c6.75,0,12.14,6.94,12.83,16.14h11.63Z"/><path class="cls-1" d="M154.89,59.44c.24-.2.49-.38.74-.55l-8.16-51.7h-4.08l2,42.94A18.28,18.28,0,0,1,154.89,59.44Z"/><path class="cls-1" d="M141.28,48.92,139.36,7.19h-2.65L134.8,48.92a17.65,17.65,0,0,1,6.48,0Z"/><path class="cls-1" d="M121.18,59.44a18.28,18.28,0,0,1,9.53-9.31l2-42.94H128.6l-8.15,51.7C120.7,59.06,120.94,59.24,121.18,59.44Z"/><path class="cls-1" d="M114.67,57a9.29,9.29,0,0,1,2,.22L124.87,5V0h-8.61L90.21,73.14h11.62C102.53,63.94,107.91,57,114.67,57Z"/><path class="cls-1" d="M161.41,61c-2.09,0-4.13,1.22-5.75,3.42a2,2,0,0,1-3.59-.76,14.44,14.44,0,0,0-28.06,0,2,2,0,0,1-3.59.78c-1.62-2.21-3.67-3.43-5.75-3.43-4.39,0-8.16,5.37-8.8,12.11H170.2C169.56,66.4,165.8,61,161.41,61Z"/></g></g></svg>